<svg width="31" height="26" viewBox="0 0 31 26" fill="none" xmlns="http://www.w3.org/2000/svg">
<path d="M23.9688 3.65625H2.03125C0.91127 3.65625 0 4.56752 0 5.6875V20.3125C0 21.4325 0.91127 22.3438 2.03125 22.3438H23.9688C25.0887 22.3438 26 21.4325 26 20.3125V5.6875C26 4.56752 25.0887 3.65625 23.9688 3.65625Z" fill="#797979"/>
<path d="M8.9375 11.7812H4.0625C3.61375 11.7812 3.25 11.4175 3.25 10.9688V7.71875C3.25 7.27 3.61375 6.90625 4.0625 6.90625H8.9375C9.38625 6.90625 9.75 7.27 9.75 7.71875V10.9688C9.75 11.4175 9.38625 11.7812 8.9375 11.7812Z" fill="#717171"/>
<path d="M6.09375 17.0625H4.0625C3.61375 17.0625 3.25 16.6988 3.25 16.25V15.8438C3.25 15.395 3.61375 15.0312 4.0625 15.0312H6.09375C6.5425 15.0312 6.90625 15.395 6.90625 15.8438V16.25C6.90625 16.6988 6.5425 17.0625 6.09375 17.0625Z" fill="#8F8F8F"/>
<path d="M11.375 17.0625H9.34375C8.895 17.0625 8.53125 16.6988 8.53125 16.25V15.8438C8.53125 15.395 8.895 15.0312 9.34375 15.0312H11.375C11.8238 15.0312 12.1875 15.395 12.1875 15.8438V16.25C12.1875 16.6988 11.8238 17.0625 11.375 17.0625Z" fill="#8F8F8F"/>
<path d="M16.6562 17.0625H14.625C14.1762 17.0625 13.8125 16.6988 13.8125 16.25V15.8438C13.8125 15.395 14.1762 15.0312 14.625 15.0312H16.6562C17.105 15.0312 17.4688 15.395 17.4688 15.8438V16.25C17.4688 16.6988 17.105 17.0625 16.6562 17.0625Z" fill="#8F8F8F"/>
<path d="M21.9375 17.0625H19.9062C19.4575 17.0625 19.0938 16.6988 19.0938 16.25V15.8438C19.0938 15.395 19.4575 15.0312 19.9062 15.0312H21.9375C22.3863 15.0312 22.75 15.395 22.75 15.8438V16.25C22.75 16.6988 22.3863 17.0625 21.9375 17.0625Z" fill="#8F8F8F"/>
<path d="M18.6876 10.9689C18.2413 11.4675 17.5927 11.7812 16.8708 11.7812C15.5246 11.7812 14.4333 10.69 14.4333 9.34375C14.4333 7.99754 15.5246 6.90625 16.8708 6.90625C17.5926 6.90625 18.2411 7.21993 18.6874 7.71839" fill="#D7D7D7"/>
<path d="M9.75 9.75H5.6875V8.9375H9.75V8.125H5.6875V6.90625H4.875V11.7812H5.6875V10.5625H9.75V9.75Z" fill="#939393"/>
<path d="M20.3125 11.7812C21.6587 11.7812 22.75 10.6899 22.75 9.34375C22.75 7.99756 21.6587 6.90625 20.3125 6.90625C18.9663 6.90625 17.875 7.99756 17.875 9.34375C17.875 10.6899 18.9663 11.7812 20.3125 11.7812Z" fill="#ADADAD"/>
<path d="M30.2784 11.4375H27.7898C27.7443 11.1155 27.6515 10.8295 27.5114 10.5795C27.3712 10.3258 27.1913 10.1098 26.9716 9.93182C26.7519 9.75379 26.4981 9.61742 26.2102 9.52273C25.9261 9.42803 25.6174 9.38068 25.2841 9.38068C24.6818 9.38068 24.1572 9.5303 23.7102 9.82955C23.2633 10.125 22.9167 10.5568 22.6705 11.125C22.4242 11.6894 22.3011 12.375 22.3011 13.1818C22.3011 14.0114 22.4242 14.7083 22.6705 15.2727C22.9205 15.8371 23.2689 16.2633 23.7159 16.5511C24.1629 16.839 24.6799 16.983 25.267 16.983C25.5966 16.983 25.9015 16.9394 26.1818 16.8523C26.4659 16.7652 26.7178 16.6383 26.9375 16.4716C27.1572 16.3011 27.339 16.0947 27.483 15.8523C27.6307 15.6098 27.733 15.3333 27.7898 15.0227L30.2784 15.0341C30.214 15.5682 30.053 16.0833 29.7955 16.5795C29.5417 17.072 29.1989 17.5133 28.767 17.9034C28.339 18.2898 27.8277 18.5966 27.233 18.8239C26.642 19.0473 25.9735 19.1591 25.2273 19.1591C24.1894 19.1591 23.2614 18.9242 22.4432 18.4545C21.6288 17.9848 20.9848 17.3049 20.5114 16.4148C20.0417 15.5246 19.8068 14.447 19.8068 13.1818C19.8068 11.9129 20.0455 10.8333 20.5227 9.94318C21 9.05303 21.6477 8.375 22.4659 7.90909C23.2841 7.43939 24.2045 7.20455 25.2273 7.20455C25.9015 7.20455 26.5265 7.29924 27.1023 7.48864C27.6818 7.67803 28.1951 7.95455 28.642 8.31818C29.089 8.67803 29.4527 9.11932 29.733 9.64205C30.017 10.1648 30.1989 10.7633 30.2784 11.4375Z" fill="#CECECE"/>
</svg>
