<svg width="25" height="22" viewBox="0 0 25 22" fill="none" xmlns="http://www.w3.org/2000/svg">
<g clip-path="url(#clip0_2541_62)">
<path d="M18.4375 2.8125H1.5625C0.700977 2.8125 0 3.51348 0 4.375V15.625C0 16.4865 0.700977 17.1875 1.5625 17.1875H18.4375C19.299 17.1875 20 16.4865 20 15.625V4.375C20 3.51348 19.299 2.8125 18.4375 2.8125Z" fill="white"/>
<path d="M19.7499 9.00019H0.249906C-1.54511 9.00019 1.5 8.99981 0 9L-9.41753e-05 7.5L0 6C0.5 6.00019 -1.54511 6.00019 0.249906 6.00019H19.7499C21.5449 6.00019 19.4999 6.00019 19.9999 6.00001V7.50001V9.00019C19.4999 9.00001 21.5449 9.00019 19.7499 9.00019Z" fill="#D0D0D0"/>
</g>
<rect x="13" y="9" width="12" height="13" rx="3" fill="#848484"/>
<path d="M22.2585 14.4545H20.2557C20.2415 14.2888 20.2036 14.1385 20.142 14.0036C20.0829 13.8686 20 13.7526 19.8935 13.6555C19.7893 13.5561 19.6626 13.4804 19.5135 13.4283C19.3643 13.3738 19.1951 13.3466 19.0057 13.3466C18.6742 13.3466 18.3937 13.4271 18.1641 13.5881C17.9368 13.7491 17.764 13.9799 17.6456 14.2805C17.5296 14.5812 17.4716 14.9422 17.4716 15.3636C17.4716 15.8087 17.5308 16.1816 17.6491 16.4822C17.7699 16.7805 17.9439 17.0054 18.1712 17.157C18.3984 17.3061 18.6719 17.3807 18.9915 17.3807C19.1738 17.3807 19.3371 17.3582 19.4815 17.3132C19.6259 17.2659 19.7514 17.1984 19.858 17.1108C19.9645 17.0232 20.0509 16.9179 20.1172 16.7947C20.1858 16.6693 20.232 16.5284 20.2557 16.3722L22.2585 16.3864C22.2348 16.6941 22.1484 17.0078 21.9993 17.3274C21.8501 17.6446 21.6383 17.9382 21.3636 18.2081C21.0914 18.4756 20.754 18.6911 20.3516 18.8544C19.9491 19.0178 19.4815 19.0994 18.9489 19.0994C18.2812 19.0994 17.6823 18.9562 17.152 18.6697C16.6241 18.3833 16.2062 17.9619 15.8984 17.4055C15.593 16.8492 15.4403 16.1686 15.4403 15.3636C15.4403 14.554 15.5966 13.8722 15.9091 13.3182C16.2216 12.7618 16.643 12.3416 17.1733 12.0575C17.7036 11.7711 18.2955 11.6278 18.9489 11.6278C19.4081 11.6278 19.8307 11.6906 20.2166 11.8161C20.6025 11.9415 20.9411 12.125 21.2322 12.3665C21.5234 12.6056 21.7578 12.9003 21.9354 13.2507C22.1129 13.6011 22.2206 14.0024 22.2585 14.4545Z" fill="white"/>
<defs>
<clipPath id="clip0_2541_62">
<rect width="20" height="20" fill="white"/>
</clipPath>
</defs>
</svg>
