<svg width="30" height="26" viewBox="0 0 30 26" fill="none" xmlns="http://www.w3.org/2000/svg">
<path d="M23.9688 3.65625H2.03125C0.91127 3.65625 0 4.56752 0 5.6875V20.3125C0 21.4325 0.91127 22.3438 2.03125 22.3438H23.9688C25.0887 22.3438 26 21.4325 26 20.3125V5.6875C26 4.56752 25.0887 3.65625 23.9688 3.65625Z" fill="#797979"/>
<path d="M8.9375 11.7812H4.0625C3.61375 11.7812 3.25 11.4175 3.25 10.9688V7.71875C3.25 7.27 3.61375 6.90625 4.0625 6.90625H8.9375C9.38625 6.90625 9.75 7.27 9.75 7.71875V10.9688C9.75 11.4175 9.38625 11.7812 8.9375 11.7812Z" fill="#717171"/>
<path d="M6.09375 17.0625H4.0625C3.61375 17.0625 3.25 16.6988 3.25 16.25V15.8438C3.25 15.395 3.61375 15.0312 4.0625 15.0312H6.09375C6.5425 15.0312 6.90625 15.395 6.90625 15.8438V16.25C6.90625 16.6988 6.5425 17.0625 6.09375 17.0625Z" fill="#8F8F8F"/>
<path d="M11.375 17.0625H9.34375C8.895 17.0625 8.53125 16.6988 8.53125 16.25V15.8438C8.53125 15.395 8.895 15.0312 9.34375 15.0312H11.375C11.8238 15.0312 12.1875 15.395 12.1875 15.8438V16.25C12.1875 16.6988 11.8238 17.0625 11.375 17.0625Z" fill="#8F8F8F"/>
<path d="M16.6562 17.0625H14.625C14.1762 17.0625 13.8125 16.6988 13.8125 16.25V15.8438C13.8125 15.395 14.1762 15.0312 14.625 15.0312H16.6562C17.105 15.0312 17.4688 15.395 17.4688 15.8438V16.25C17.4688 16.6988 17.105 17.0625 16.6562 17.0625Z" fill="#8F8F8F"/>
<path d="M21.9375 17.0625H19.9062C19.4575 17.0625 19.0938 16.6988 19.0938 16.25V15.8438C19.0938 15.395 19.4575 15.0312 19.9062 15.0312H21.9375C22.3863 15.0312 22.75 15.395 22.75 15.8438V16.25C22.75 16.6988 22.3863 17.0625 21.9375 17.0625Z" fill="#8F8F8F"/>
<path d="M18.6876 10.9689C18.2413 11.4675 17.5927 11.7812 16.8708 11.7812C15.5246 11.7812 14.4333 10.69 14.4333 9.34375C14.4333 7.99754 15.5246 6.90625 16.8708 6.90625C17.5926 6.90625 18.2411 7.21993 18.6874 7.71839" fill="#D7D7D7"/>
<path d="M9.75 9.75H5.6875V8.9375H9.75V8.125H5.6875V6.90625H4.875V11.7812H5.6875V10.5625H9.75V9.75Z" fill="#939393"/>
<path d="M20.3125 11.7812C21.6587 11.7812 22.75 10.6899 22.75 9.34375C22.75 7.99756 21.6587 6.90625 20.3125 6.90625C18.9663 6.90625 17.875 7.99756 17.875 9.34375C17.875 10.6899 18.9663 11.7812 20.3125 11.7812Z" fill="#ADADAD"/>
<path d="M24.1364 19H20.0114V7.36364H24.1705C25.3409 7.36364 26.3485 7.59659 27.1932 8.0625C28.0379 8.52462 28.6875 9.18939 29.142 10.0568C29.6004 10.9242 29.8295 11.9621 29.8295 13.1705C29.8295 14.3826 29.6004 15.4242 29.142 16.2955C28.6875 17.1667 28.0341 17.8352 27.1818 18.3011C26.3333 18.767 25.3182 19 24.1364 19ZM22.4716 16.892H24.0341C24.7614 16.892 25.3731 16.7633 25.8693 16.5057C26.3693 16.2443 26.7443 15.8409 26.9943 15.2955C27.2481 14.7462 27.375 14.0379 27.375 13.1705C27.375 12.3106 27.2481 11.608 26.9943 11.0625C26.7443 10.517 26.3712 10.1155 25.875 9.85795C25.3788 9.60038 24.767 9.47159 24.0398 9.47159H22.4716V16.892Z" fill="#CECECE"/>
</svg>
