<svg width="25" height="22" viewBox="0 0 25 22" fill="none" xmlns="http://www.w3.org/2000/svg">
<g clip-path="url(#clip0_2541_64)">
<path d="M18.4375 2.8125H1.5625C0.700977 2.8125 0 3.51348 0 4.375V15.625C0 16.4865 0.700977 17.1875 1.5625 17.1875H18.4375C19.299 17.1875 20 16.4865 20 15.625V4.375C20 3.51348 19.299 2.8125 18.4375 2.8125Z" fill="white"/>
<path d="M19.7499 9.00019H0.249906C-1.54511 9.00019 1.5 8.99981 0 9L-9.41753e-05 7.5L0 6C0.5 6.00019 -1.54511 6.00019 0.249906 6.00019H19.7499C21.5449 6.00019 19.4999 6.00019 19.9999 6.00001V7.50001V9.00019C19.4999 9.00001 21.5449 9.00019 19.7499 9.00019Z" fill="#D0D0D0"/>
</g>
<rect x="13" y="9" width="12" height="13" rx="3" fill="#848484"/>
<path d="M19.267 19H16.4688V11.7273H19.2386C19.9867 11.7273 20.633 11.8729 21.1776 12.1641C21.7244 12.4529 22.1458 12.8696 22.4418 13.4141C22.7401 13.9562 22.8892 14.6061 22.8892 15.3636C22.8892 16.1212 22.7412 16.7723 22.4453 17.3168C22.1494 17.8589 21.7304 18.2756 21.1882 18.5668C20.6461 18.8556 20.0057 19 19.267 19ZM18.4432 17.3239H19.196C19.5559 17.3239 19.8625 17.2659 20.1158 17.1499C20.3714 17.0339 20.5656 16.8338 20.6982 16.5497C20.8331 16.2656 20.9006 15.8703 20.9006 15.3636C20.9006 14.857 20.8319 14.4616 20.6946 14.1776C20.5597 13.8935 20.3608 13.6934 20.098 13.5774C19.8376 13.4614 19.518 13.4034 19.1392 13.4034H18.4432V17.3239Z" fill="white"/>
<defs>
<clipPath id="clip0_2541_64">
<rect width="20" height="20" fill="white"/>
</clipPath>
</defs>
</svg>
