<svg width="25" height="25" viewBox="0 0 25 25" fill="none" xmlns="http://www.w3.org/2000/svg">
<path fill-rule="evenodd" clip-rule="evenodd" d="M20.0639 19.2501L15.6005 23.7104C13.8799 25.4299 11.086 25.4299 9.36542 23.7104L4.91908 19.2671C5.75383 19.2671 6.4523 19.165 7.04855 18.9607C7.66184 18.7564 8.13884 18.4499 8.49659 18.0414L12.0911 14.3982C12.2785 14.245 12.4659 14.1599 12.6363 14.1599C12.8237 14.1599 12.994 14.245 13.1814 14.3982L16.776 18.0414C17.1167 18.4499 17.6107 18.7564 18.224 18.9607C18.7521 19.1309 19.3654 19.2331 20.0809 19.2501H20.0639ZM4.90204 5.74991L9.36542 1.28958C11.086 -0.42986 13.8799 -0.42986 15.6005 1.28958L20.0809 5.76694C19.3654 5.78396 18.7351 5.88611 18.207 6.05635C17.5937 6.26064 17.1167 6.56707 16.7589 6.97566L13.1644 10.6188C12.977 10.772 12.7896 10.8572 12.6192 10.8572C12.4319 10.8572 12.2615 10.772 12.0741 10.6188L8.47956 6.97566C8.13884 6.56707 7.6448 6.26064 7.03152 6.05635C6.43526 5.86908 5.71976 5.76694 4.88501 5.74991H4.90204ZM1.27342 9.37606L3.35179 7.29911C4.95315 7.04375 5.99233 7.1459 6.74191 7.40126C7.49148 7.67365 7.95145 8.09925 8.36031 8.50783C10.9838 11.1466 11.8015 11.8105 11.8186 11.8105C11.9208 11.8786 12.0571 11.9467 12.2104 11.9808C12.3637 12.0318 12.5341 12.0489 12.6704 12.0489C12.8066 12.0489 12.977 12.0318 13.1133 11.9808C13.2666 11.9297 13.4029 11.8786 13.5051 11.7935C13.5051 11.7935 14.3399 11.1296 16.9634 8.49081C17.3722 8.09925 17.8322 7.65662 18.5818 7.38424C19.2632 7.1459 20.2002 7.04375 21.563 7.21399L23.7095 9.35904C25.4302 11.0785 25.4302 13.8704 23.7095 15.5899L21.546 17.752C20.1831 17.9222 19.2632 17.8201 18.5988 17.5817C17.8492 17.3093 17.3893 16.8837 16.9804 16.4751C14.3569 13.8364 13.5392 13.1725 13.5221 13.1725C13.4199 13.1044 13.2836 13.0363 13.1303 12.9852C12.977 12.9341 12.8237 12.9171 12.6874 12.9171C12.5511 12.9171 12.3807 12.9511 12.2274 12.9852C12.0741 13.0363 11.9378 13.0873 11.8356 13.1554C11.8356 13.1554 11.0009 13.8194 8.37734 16.4581C7.96848 16.8497 7.50852 17.2923 6.75894 17.5647C6.00937 17.8201 4.98722 17.9222 3.4029 17.6839L1.29046 15.5729C-0.430153 13.8534 -0.430153 11.0615 1.29046 9.34202L1.27342 9.37606Z" fill="#979797"/>
</svg>
