<svg width="20" height="20" viewBox="0 0 20 20" fill="none" xmlns="http://www.w3.org/2000/svg">
<path fill-rule="evenodd" clip-rule="evenodd" d="M16.0511 15.4001L12.4804 18.9683C11.1039 20.3439 8.86882 20.3439 7.49233 18.9683L3.93526 15.4137C4.60307 15.4137 5.16184 15.332 5.63884 15.1685C6.12947 15.0051 6.51107 14.76 6.79727 14.4331L9.67291 11.5186C9.82283 11.396 9.97274 11.3279 10.109 11.3279C10.2589 11.3279 10.3952 11.396 10.5451 11.5186L13.4208 14.4331C13.6934 14.76 14.0886 15.0051 14.5792 15.1685C15.0017 15.3047 15.4923 15.3864 16.0647 15.4001H16.0511ZM3.92164 4.59993L7.49233 1.03167C8.86882 -0.343888 11.1039 -0.343888 12.4804 1.03167L16.0647 4.61355C15.4923 4.62717 14.9881 4.70889 14.5656 4.84508C14.075 5.00851 13.6934 5.25366 13.4072 5.58052L10.5315 8.49506C10.3816 8.61764 10.2317 8.68573 10.0954 8.68573C9.94548 8.68573 9.8092 8.61764 9.65928 8.49506L6.78365 5.58052C6.51107 5.25366 6.11584 5.00851 5.62521 4.84508C5.14821 4.69527 4.57581 4.61355 3.90801 4.59993H3.92164ZM1.01874 7.50085L2.68143 5.83929C3.96252 5.635 4.79387 5.71672 5.39353 5.92101C5.99319 6.13892 6.36116 6.4794 6.68825 6.80626C8.78705 8.91726 9.44123 9.44842 9.45486 9.44842C9.53663 9.50289 9.64566 9.55737 9.76831 9.58461C9.89097 9.62547 10.0273 9.63909 10.1363 9.63909C10.2453 9.63909 10.3816 9.62547 10.4906 9.58461C10.6133 9.54375 10.7223 9.50289 10.8041 9.4348C10.8041 9.4348 11.4719 8.90364 13.5707 6.79265C13.8978 6.4794 14.2658 6.1253 14.8654 5.90739C15.4106 5.71672 16.1601 5.635 17.2504 5.7712L18.9676 7.48723C20.3441 8.86279 20.3441 11.0964 18.9676 12.4719L17.2368 14.2016C16.1465 14.3378 15.4106 14.256 14.879 14.0654C14.2794 13.8475 13.9114 13.507 13.5843 13.1801C11.4855 11.0691 10.8313 10.538 10.8177 10.538C10.7359 10.4835 10.6269 10.429 10.5043 10.3882C10.3816 10.3473 10.2589 10.3337 10.1499 10.3337C10.0409 10.3337 9.9046 10.3609 9.78194 10.3882C9.65928 10.429 9.55026 10.4699 9.46848 10.5243C9.46848 10.5243 8.80068 11.0555 6.70187 13.1665C6.37479 13.4797 6.00681 13.8338 5.40715 14.0518C4.8075 14.256 3.98978 14.3378 2.72232 14.1471L1.03237 12.4583C-0.344123 11.0827 -0.344123 8.84917 1.03237 7.47361L1.01874 7.50085Z" fill="white"/>
</svg>
